<svg width="9.47902" height="9.48101" viewBox="0 0 9.47902 9.48101" fill="none" xmlns="http://www.w3.org/2000/svg">
<g id="icon-fill">
<path d="M6.15268 4.12344C6.38172 4.14361 6.55147 4.34561 6.53151 4.57469L6.44035 5.61149L7.48122 5.70261C7.71026 5.72286 7.88006 5.92474 7.86006 6.15386C7.83985 6.3829 7.63747 6.55261 7.40839 6.53269L6.36793 6.44157L6.27718 7.48036C6.25701 7.7094 6.05497 7.87903 5.82593 7.85919C5.59681 7.83911 5.42726 7.63707 5.4471 7.40794L5.53785 6.36874L4.5031 6.2784C4.27401 6.25836 4.10439 6.05624 4.12426 5.82711C4.14431 5.59786 4.34626 5.42828 4.57551 5.44832L5.61068 5.53865L5.70143 4.50228C5.72151 4.27303 5.92343 4.1034 6.15268 4.12344Z" fill="var(--fill-0, white)" style="fill:white;fill-opacity:1;"/>
<path fill-rule="evenodd" clip-rule="evenodd" d="M5.06706 0.00559742C5.86914 -0.0643372 6.57639 0.529169 6.64664 1.33128L6.76751 2.71312L8.14772 2.83397C8.94993 2.90429 9.54356 3.61172 9.47339 4.41394L9.14664 8.14973C9.07635 8.9519 8.36881 9.5454 7.56668 9.4754L3.8309 9.14865C3.02867 9.0784 2.43516 8.3709 2.50522 7.56865L2.56218 6.9164L1.91236 6.97378C1.11013 7.04394 0.402747 6.45024 0.332368 5.64811L0.00562571 1.91234C-0.0644939 1.11004 0.529006 0.40294 1.33131 0.332748L5.06706 0.00559742ZM4.33951 3.3373C3.99564 3.30721 3.69253 3.56188 3.66245 3.90574L3.3353 7.64149C3.30546 7.98519 3.56001 8.28853 3.90374 8.31857L7.63951 8.64532C7.98306 8.67519 8.28631 8.42082 8.3166 8.07728L8.64331 4.34153C8.67339 3.99778 8.41897 3.69474 8.07531 3.66445L4.33951 3.3373ZM5.13951 0.836081L1.40374 1.16282C1.05991 1.19294 0.805622 1.49606 0.835706 1.83991L1.16245 5.57565C1.19274 5.91928 1.49583 6.17374 1.83953 6.14369L2.63583 6.07369L2.83196 3.83291C2.90218 3.03061 3.60966 2.43708 4.41197 2.50723L5.92439 2.63947L5.8166 1.40411C5.78651 1.06034 5.48326 0.806152 5.13951 0.836081Z" fill="var(--fill-0, white)" style="fill:white;fill-opacity:1;"/>
</g>
</svg>
