<svg width="20" height="20" viewBox="0 0 20 20" fill="none" xmlns="http://www.w3.org/2000/svg">
<g id="icon-fill">
<path d="M14 9H11V6C11 5.45 10.55 5 10 5C9.45 5 9 5.45 9 6V9H6C5.45 9 5 9.45 5 10C5 10.55 5.45 11 6 11H9V14C9 14.55 9.45 15 10 15C10.55 15 11 14.55 11 14V11H14C14.55 11 15 10.55 15 10C15 9.45 14.55 9 14 9Z" fill="var(--fill-0, #F2F2F2)" style="fill:#F2F2F2;fill:color(display-p3 0.9490 0.9490 0.9490);fill-opacity:1;"/>
<path d="M10 0C4.49 0 0 4.49 0 10C0 15.51 4.49 20 10 20C15.51 20 20 15.51 20 10C20 4.49 15.51 0 10 0ZM10 18C5.59 18 2 14.41 2 10C2 5.59 5.59 2 10 2C14.41 2 18 5.59 18 10C18 14.41 14.41 18 10 18Z" fill="var(--fill-0, #F2F2F2)" style="fill:#F2F2F2;fill:color(display-p3 0.9490 0.9490 0.9490);fill-opacity:1;"/>
</g>
</svg>
