<svg width="18.463" height="18.5185" viewBox="0 0 18.463 18.5185" fill="none" xmlns="http://www.w3.org/2000/svg">
<path id="icon-fill" d="M2.74076 15.4352V17.5926C2.74076 17.8889 2.87964 18.1667 3.12964 18.3426C3.28705 18.4537 3.48151 18.5185 3.66669 18.5185C3.76854 18.5185 3.86114 18.5 3.96299 18.4722L7.01854 17.4537C7.16669 17.4074 7.32412 17.3982 7.50931 17.4352C8.08338 17.5463 8.6667 17.5926 9.23156 17.5926C14.3241 17.5926 18.463 13.6482 18.463 8.7963C18.463 3.94445 14.3241 0 9.23156 0C4.13892 0 0 3.94445 0 8.7963C0 11.0463 0.898196 13.1945 2.53709 14.8333C2.67598 14.9722 2.7593 15.1945 2.7593 15.4352H2.74076ZM9.22219 1.85185C13.2963 1.85185 16.6018 4.96296 16.6018 8.7963C16.6018 13.0463 12.5 16.4722 7.8333 15.6111C7.34256 15.5185 6.87032 15.5463 6.42588 15.6945L4.59256 16.3056V15.4352C4.59256 14.6945 4.32403 14.0185 3.83329 13.5278C2.54626 12.2315 1.84259 10.5556 1.84259 8.7963C1.84259 4.96296 5.15737 1.85185 9.22219 1.85185Z" fill="var(--fill-0, white)" fill-opacity="0.7" style="fill:white;fill-opacity:0.7;"/>
</svg>
