<svg width="14.8148" height="3.70366" viewBox="0 0 14.8148 3.70366" fill="none" xmlns="http://www.w3.org/2000/svg">
<g id="icon-fill">
<path d="M7.40741 3.70366C8.43017 3.70366 9.25927 2.87456 9.25927 1.85186C9.25927 0.8291 8.43017 0 7.40741 0C6.38466 0 5.55555 0.8291 5.55555 1.85186C5.55555 2.87456 6.38466 3.70366 7.40741 3.70366Z" fill="var(--fill-0, white)" fill-opacity="0.7" style="fill:white;fill-opacity:0.7;"/>
<path d="M1.85185 3.70366C2.8746 3.70366 3.7037 2.87456 3.7037 1.85186C3.7037 0.8291 2.8746 0 1.85185 0C0.8291 0 0 0.8291 0 1.85186C0 2.87456 0.8291 3.70366 1.85185 3.70366Z" fill="var(--fill-0, white)" fill-opacity="0.7" style="fill:white;fill-opacity:0.7;"/>
<path d="M12.963 3.70366C13.9857 3.70366 14.8148 2.87456 14.8148 1.85186C14.8148 0.8291 13.9857 0 12.963 0C11.9402 0 11.1111 0.8291 11.1111 1.85186C11.1111 2.87456 11.9402 3.70366 12.963 3.70366Z" fill="var(--fill-0, white)" fill-opacity="0.7" style="fill:white;fill-opacity:0.7;"/>
</g>
</svg>
