<svg width="17.5407" height="17.5412" viewBox="0 0 17.5407 17.5412" fill="none" xmlns="http://www.w3.org/2000/svg">
<path id="icon-fill" d="M15.5418 0.0276007C16.7431 -0.189259 17.7906 0.905881 17.488 2.11583C17.0192 3.98957 16.0913 7.596 15.3225 9.93484C14.5053 12.4203 13.4974 14.73 12.6761 16.484C11.9551 18.0232 9.76288 17.8256 9.25918 16.2551L7.46825 10.6714C7.37694 10.3871 7.15406 10.1642 6.86979 10.0729L1.28606 8.28204C-0.284426 7.77831 -0.482058 5.58614 1.05716 4.86518C2.8112 4.04386 5.12082 3.0359 7.60636 2.21877C9.94518 1.44988 13.5517 0.522021 15.4254 0.0531806L15.5418 0.0276007ZM13.8685 2.36327C12.0283 2.84229 9.78658 3.45162 8.18436 3.97835C5.8125 4.75812 3.59043 5.72331 1.87493 6.52566L7.43501 8.30954C7.55506 8.34804 7.6713 8.39474 7.78347 8.44824L13.8685 2.36327ZM9.09293 9.75774C9.14648 9.86994 9.19316 9.98614 9.23168 10.1062L11.0149 15.6656C11.8173 13.9501 12.7831 11.7285 13.5629 9.35684C14.0896 7.75464 14.6989 5.51294 15.178 3.67273L9.09293 9.75774Z" fill="var(--fill-0, white)" fill-opacity="0.7" style="fill:white;fill-opacity:0.7;"/>
</svg>
