<svg width="18.958" height="18.962" viewBox="0 0 18.958 18.962" fill="none" xmlns="http://www.w3.org/2000/svg">
<g id="icon-fill">
<path d="M12.3054 8.24689C12.7634 8.28722 13.1029 8.69122 13.063 9.14939L12.8807 11.223L14.9624 11.4052C15.4205 11.4457 15.7601 11.8495 15.7201 12.3077C15.6797 12.7658 15.2749 13.1052 14.8168 13.0654L12.7359 12.8831L12.5544 14.9607C12.514 15.4188 12.1099 15.7581 11.6519 15.7184C11.1936 15.6782 10.8545 15.2741 10.8942 14.8159L11.0757 12.7375L9.00619 12.5568C8.54803 12.5167 8.20878 12.1125 8.24853 11.6542C8.28861 11.1957 8.69253 10.8566 9.15103 10.8966L11.2214 11.0773L11.4029 9.00455C11.443 8.54605 11.8469 8.2068 12.3054 8.24689Z" fill="var(--fill-0, white)" fill-opacity="0.7" style="fill:white;fill-opacity:0.7;"/>
<path fill-rule="evenodd" clip-rule="evenodd" d="M10.1341 0.0111948C11.7383 -0.128674 13.1528 1.05834 13.2933 2.66256L13.535 5.42624L16.2954 5.66794C17.8999 5.80859 19.0871 7.22344 18.9468 8.82789L18.2933 16.2995C18.1527 17.9038 16.7376 19.0908 15.1334 18.9508L7.6618 18.2973C6.05734 18.1568 4.87031 16.7418 5.01044 15.1373L5.12437 13.8328L3.82473 13.9476C2.22027 14.0879 0.805495 12.9005 0.664736 11.2962L0.0112514 3.82467C-0.128988 2.22008 1.05801 0.805879 2.66262 0.665496L10.1341 0.0111948ZM8.67903 6.6746C7.99128 6.61443 7.38506 7.12376 7.32489 7.81149L6.67059 15.283C6.61091 15.9704 7.12002 16.5771 7.80748 16.6371L15.279 17.2906C15.9661 17.3504 16.5726 16.8416 16.6332 16.1546L17.2866 8.68305C17.3468 7.99555 16.8379 7.38949 16.1506 7.3289L8.67903 6.6746ZM10.279 1.67216L2.80748 2.32565C2.11981 2.38588 1.61124 2.99212 1.67141 3.67981L2.32489 11.1513C2.38549 11.8386 2.99165 12.3475 3.67906 12.2874L5.27167 12.1474L5.66392 7.66582C5.80436 6.06122 7.21931 4.87415 8.82394 5.01445L11.8488 5.27894L11.6332 2.80823C11.573 2.12068 10.9665 1.6123 10.279 1.67216Z" fill="var(--fill-0, white)" fill-opacity="0.7" style="fill:white;fill-opacity:0.7;"/>
</g>
</svg>
