<svg width="19.0024" height="18.99" viewBox="0 0 19.0024 18.99" fill="none" xmlns="http://www.w3.org/2000/svg">
<path id="icon-fill" d="M16.02 14.61C17.299 13.0197 17.9974 11.0408 18 9C18 4.04 13.96 0 9 0C4.04 0 0 4.04 0 9C0 13.96 4.04 18 9 18C11.12 18 13.07 17.26 14.61 16.02L17.29 18.7C17.49 18.9 17.74 18.99 18 18.99C18.26 18.99 18.51 18.89 18.71 18.7C18.8027 18.6075 18.8763 18.4976 18.9264 18.3766C18.9766 18.2557 19.0024 18.126 19.0024 17.995C19.0024 17.864 18.9766 17.7343 18.9264 17.6134C18.8763 17.4924 18.8027 17.3825 18.71 17.29L16.03 14.61H16.02ZM9 16C5.14 16 2 12.86 2 9C2 5.14 5.14 2 9 2C12.86 2 16 5.14 16 9C16 12.86 12.86 16 9 16Z" fill="var(--fill-0, #F2F2F2)" style="fill:#F2F2F2;fill:color(display-p3 0.9490 0.9490 0.9490);fill-opacity:1;"/>
</svg>
