<svg width="18.01" height="18.3152" viewBox="0 0 18.01 18.3152" fill="none" xmlns="http://www.w3.org/2000/svg">
<path id="icon-fill" d="M11.39 0.94516C10.7404 0.337844 9.88429 0 8.995 0C8.10571 0 7.24962 0.337844 6.6 0.94516L1.26 5.95516C0.46 6.70516 0 7.77516 0 8.87516V15.3752C0 16.5552 0.82 17.5852 1.96 17.8252C2.87 18.0152 3.82 18.1752 4.77 18.2952C4.85 18.3052 4.93 18.3152 5.01 18.3152C5.49 18.3152 5.96 18.1452 6.32 17.8152C6.75 17.4352 7 16.8852 7 16.3052V13.0752C7 12.5252 7.45 12.0752 8 12.0752H10C10.55 12.0752 11 12.5252 11 13.0752V16.3052C11 16.8852 11.25 17.4252 11.68 17.8152C12.11 18.1952 12.67 18.3652 13.24 18.2952C14.19 18.1752 15.14 18.0152 16.05 17.8252C17.18 17.5852 18.01 16.5552 18.01 15.3752V8.87516C18.01 7.77516 17.55 6.70516 16.75 5.95516L11.41 0.94516H11.39Z" fill="var(--fill-0, #F2F2F2)" style="fill:#F2F2F2;fill:color(display-p3 0.9490 0.9490 0.9490);fill-opacity:1;"/>
</svg>
