<svg width="20" height="17.9872" viewBox="0 0 20 17.9872" fill="none" xmlns="http://www.w3.org/2000/svg">
<path id="icon-fill" d="M15.53 0.147187C13.82 -0.262813 11.61 0.117187 9.98 2.13719C8.28 0.0971868 6.04 -0.262813 4.34 0.157187C3.09934 0.46921 1.99847 1.18675 1.21218 2.19588C0.425895 3.20501 -0.000745439 4.44789 9.77737e-07 5.72719C9.77737e-07 10.7472 4.98 16.0872 9.63 17.9172C9.75 17.9672 9.87 17.9872 10 17.9872C10.13 17.9872 10.25 17.9672 10.37 17.9172C15.02 16.0772 20 10.7372 20 5.72719C20 3.10719 18.12 0.757187 15.53 0.137187V0.147187ZM10 15.9172C6.14 14.2172 2 9.74719 2 5.73719C2 3.82719 3.43 2.45719 4.83 2.10719C5.12 2.03719 5.4 1.99719 5.68 1.99719C7.04 1.99719 8.26 2.84719 9.12 4.43719C9.3 4.76719 9.64 4.92719 10.01 4.95719C10.38 4.95719 10.72 4.73719 10.89 4.40719C11.84 2.52719 13.36 1.68719 15.06 2.09719C16.52 2.44719 18 3.80719 18 5.73719C18 9.74719 13.86 14.2172 10 15.9172Z" fill="var(--fill-0, #F2F2F2)" style="fill:#F2F2F2;fill:color(display-p3 0.9490 0.9490 0.9490);fill-opacity:1;"/>
</svg>
