<svg width="20" height="20" viewBox="0 0 20 20" fill="none" xmlns="http://www.w3.org/2000/svg">
<g id="icon-fill">
<path fill-rule="evenodd" clip-rule="evenodd" d="M10 5C10.9283 5 11.8185 5.36875 12.4749 6.02513C13.1313 6.6815 13.5 7.57174 13.5 8.5C13.5 9.42826 13.1313 10.3185 12.4749 10.9749C11.8185 11.6313 10.9283 12 10 12C9.07174 12 8.1815 11.6313 7.52513 10.9749C6.86875 10.3185 6.5 9.42826 6.5 8.5C6.5 7.57174 6.86875 6.6815 7.52513 6.02513C8.1815 5.36875 9.07174 5 10 5ZM10 7C9.60218 7 9.22064 7.15804 8.93934 7.43934C8.65804 7.72064 8.5 8.10218 8.5 8.5C8.5 8.89782 8.65804 9.27936 8.93934 9.56066C9.22064 9.84196 9.60218 10 10 10C10.3978 10 10.7794 9.84196 11.0607 9.56066C11.342 9.27936 11.5 8.89782 11.5 8.5C11.5 8.10218 11.342 7.72064 11.0607 7.43934C10.7794 7.15804 10.3978 7 10 7Z" fill="var(--fill-0, #F2F2F2)" style="fill:#F2F2F2;fill:color(display-p3 0.9490 0.9490 0.9490);fill-opacity:1;"/>
<path fill-rule="evenodd" clip-rule="evenodd" d="M10 0C15.523 0 20 4.477 20 10C20 15.523 15.523 20 10 20C4.477 20 0 15.523 0 10C0 4.477 4.477 0 10 0ZM10 14.818C8.702 14.818 7.518 15.145 6.726 15.667C6.244 15.984 5.926 16.35 5.765 16.787C7.03444 17.5817 8.50233 18.0021 10 18C11.4979 18.0015 12.9658 17.5804 14.235 16.785C14.073 16.35 13.756 15.984 13.275 15.667C12.483 15.145 11.299 14.818 10 14.818ZM10 2C8.43867 2.00069 6.91167 2.45823 5.60723 3.31624C4.30279 4.17424 3.27793 5.3952 2.65898 6.8286C2.04003 8.26201 1.85406 9.8452 2.12397 11.383C2.39389 12.9208 3.10791 14.3461 4.178 15.483C5.218 13.707 7.608 12.818 10 12.818C12.392 12.818 14.782 13.708 15.822 15.483C16.8921 14.3461 17.6061 12.9208 17.876 11.383C18.1459 9.8452 17.96 8.26201 17.341 6.8286C16.7221 5.3952 15.6972 4.17424 14.3928 3.31624C13.0883 2.45823 11.5613 2.00069 10 2Z" fill="var(--fill-0, #F2F2F2)" style="fill:#F2F2F2;fill:color(display-p3 0.9490 0.9490 0.9490);fill-opacity:1;"/>
</g>
</svg>
