<svg width="18.5185" height="16.6548" viewBox="0 0 18.5185 16.6548" fill="none" xmlns="http://www.w3.org/2000/svg">
<path id="icon-fill" d="M14.3796 0.136283C12.7963 -0.243347 10.75 0.108513 9.24074 1.97888C7.66666 0.0899935 5.59259 -0.243337 4.01852 0.145553C1.64815 0.747403 0 2.86777 0 5.30295C0 9.95113 4.61112 14.8955 8.91667 16.59C9.02778 16.6363 9.13889 16.6548 9.25929 16.6548C9.37959 16.6548 9.49069 16.6363 9.60189 16.59C13.9074 14.8863 18.5185 9.94183 18.5185 5.30295C18.5185 2.87702 16.7778 0.701103 14.3796 0.127033V0.136283ZM9.25929 14.7381C5.68519 13.164 1.85185 9.02523 1.85185 5.31222C1.85185 3.5437 3.17593 2.27518 4.47222 1.9511C4.74074 1.88629 4.99999 1.84925 5.25925 1.84925C6.51851 1.84925 7.64814 2.63629 8.44444 4.10851C8.61111 4.41407 8.92592 4.56222 9.26849 4.59C9.61109 4.59 9.92589 4.38629 10.0833 4.08074C10.963 2.33999 12.3704 1.56222 13.9445 1.94185C15.2963 2.26592 16.6667 3.52518 16.6667 5.31222C16.6667 9.02523 12.8333 13.164 9.25929 14.7381Z" fill="var(--fill-0, #5A5A5A)" style="fill:#5A5A5A;fill:color(display-p3 0.3529 0.3529 0.3529);fill-opacity:1;"/>
</svg>
