<svg width="9.59998" height="9.59995" viewBox="0 0 9.59998 9.59995" fill="none" xmlns="http://www.w3.org/2000/svg">
<path id="icon-fill" d="M4.8 9.59995C5.13 9.59995 5.4 9.32995 5.4 8.99995V5.4H9C9.32998 5.4 9.59998 5.13 9.59998 4.8C9.59998 4.47 9.32998 4.2 9 4.2H5.4V0.6C5.4 0.27 5.13 0 4.8 0C4.47 0 4.2 0.27 4.2 0.6V4.2H0.600001C0.270001 4.2 0 4.47 0 4.8C0 5.13 0.270001 5.4 0.600001 5.4H4.2V8.99995C4.2 9.32995 4.47 9.59995 4.8 9.59995Z" fill="var(--fill-0, #272727)" style="fill:#272727;fill:color(display-p3 0.1529 0.1529 0.1529);fill-opacity:1;"/>
</svg>
